<svg width="75" height="75" viewBox="0 0 75 75" fill="none" xmlns="http://www.w3.org/2000/svg">
<g clip-path="url(#clip0_1_23)">
<mask id="mask0_1_23" style="mask-type:alpha" maskUnits="userSpaceOnUse" x="0" y="22" width="75" height="29">
<path d="M8.27306 50.8816C6.03837 50.7867 4.21006 50.1331 2.78047 48.9191C2.50764 48.6872 1.85751 47.9918 1.6394 47.6986C1.05968 46.9194 0.665548 46.161 0.402665 45.3197C-0.406262 42.7297 0.0100636 39.3311 1.59348 35.6012C2.94922 32.408 5.04118 29.2409 8.69092 24.8545C9.22855 24.2091 10.8296 22.3214 10.8399 22.3214C10.8437 22.3214 10.7565 22.483 10.6467 22.6797C9.69768 24.3788 8.88569 26.3802 8.44334 28.1128C7.73276 30.8929 7.81847 33.2788 8.69436 35.1288C9.29857 36.4033 10.3344 37.5073 11.4992 38.1176C13.5384 39.1855 16.5238 39.2739 20.1697 38.3761C20.4207 38.3139 32.8592 34.7844 47.811 30.5326C62.7628 26.2804 74.9981 22.8041 75 22.8069C75.0042 22.8106 40.2628 38.7012 22.228 46.9451C19.3719 48.2503 18.6081 48.58 17.2654 49.0839C13.833 50.3723 10.7584 50.9871 8.27306 50.8816Z" fill="black"/>
</mask>
<g mask="url(#mask0_1_23)">
<rect width="75" height="71.4286" fill="white"/>
</g>
</g>
<defs>
<clipPath id="clip0_1_23">
<rect width="75" height="75" fill="white"/>
</clipPath>
</defs>
</svg>
